<svg width="216" height="51" viewBox="0 0 216 51" fill="none" xmlns="http://www.w3.org/2000/svg"><path d="M97.8733 35.8731H96.8081C96.4463 35.079 95.7027 34.6108 94.738 34.6108C93.311 34.6108 92.2257 35.6491 92.2257 37.3186C92.2257 38.9677 93.2909 40.006 94.738 40.006C96.0644 40.006 96.9889 39.1305 97.1296 37.7665H94.4164V37.0539H98.0742V37.7461C97.9134 39.4563 96.587 40.8204 94.738 40.8204C92.8286 40.8204 91.3213 39.3749 91.3213 37.3186C91.3213 35.2623 92.8286 33.7964 94.738 33.7964C96.1649 33.7964 97.3507 34.5497 97.8733 35.8731Z" fill="white"></path><path d="M107.118 33.8778V40.0264H109.51V40.7593H106.254V33.8778H107.118Z" fill="white"></path><path d="M120.524 40.8204C118.614 40.8204 117.107 39.3748 117.107 37.2982C117.107 35.2419 118.614 33.776 120.524 33.776C122.433 33.776 123.94 35.2216 123.94 37.2982C123.94 39.3748 122.453 40.8204 120.524 40.8204ZM120.524 40.0467C121.951 40.0467 123.036 38.988 123.036 37.3186C123.036 35.6287 121.971 34.5904 120.524 34.5904C119.097 34.5904 118.011 35.6287 118.011 37.3186C118.011 38.988 119.097 40.0467 120.524 40.0467Z" fill="white"></path><path d="M134.632 40.7593H132.1V33.8778H134.532C135.959 33.8778 136.682 34.6719 136.682 35.6287C136.682 36.5042 136.14 36.9928 135.497 37.2168C136.24 37.3389 136.843 38.0719 136.843 38.9066C136.843 39.9449 136.039 40.7593 134.632 40.7593ZM134.452 34.6311H132.984V36.8707H134.472C135.296 36.8707 135.778 36.4635 135.778 35.7509C135.778 35.0587 135.336 34.6311 134.452 34.6311ZM134.532 37.5832H132.984V40.006H134.552C135.436 40.006 135.959 39.5581 135.959 38.8048C135.959 38.0719 135.396 37.5832 134.532 37.5832Z" fill="white"></path><path d="M149.083 39.2323H146.129L145.586 40.7593H144.642L147.094 33.9186H148.119L150.571 40.7593H149.626L149.083 39.2323ZM147.596 35.018L146.37 38.4994H148.822L147.596 35.018Z" fill="white"></path><path d="M159.514 33.8778V40.0264H161.885V40.7593H158.629V33.8778H159.514Z" fill="white"></path><path fill-rule="evenodd" clip-rule="evenodd" d="M157.966 9.97605V25.5102H155.776V9.97605H151.615V7.98084H162.127V9.97605H157.966Z" fill="white"></path><path fill-rule="evenodd" clip-rule="evenodd" d="M139.496 23.4539H144.883V25.5102H139.516H137.326V7.91976H139.516V23.4539H139.496Z" fill="white"></path><path fill-rule="evenodd" clip-rule="evenodd" d="M91.522 7.96048H94.2151C98.0739 8.08264 100.044 9.60958 100.084 12.582C100.084 14.2311 99.4607 15.412 98.1945 16.1246C98.6568 16.2467 98.9984 16.3689 99.1793 16.4707C100.888 17.4072 101.712 18.7305 101.712 20.7258C101.712 24.9401 97.2901 25.4695 96.1847 25.5102C96.1847 25.5102 94.6372 25.5102 91.5421 25.5102L91.522 7.96048ZM93.7328 9.91497V15.7174C94.4563 15.7174 94.9587 15.697 95.1999 15.6766C95.4813 15.6563 95.7024 15.5952 95.8832 15.5749C96.647 15.4323 97.1494 15.1269 97.4107 14.8419C97.8529 14.3737 98.0337 13.6407 98.0337 12.8263C98.0337 12.0934 97.9132 11.4216 97.5715 10.9737C97.3303 10.6479 96.848 10.2814 96.0842 10.0982C95.7225 10.0168 94.9386 9.95569 93.7328 9.91497ZM93.7127 17.4886V23.5557C94.8783 23.5353 95.6421 23.5353 96.0038 23.515C96.2651 23.4946 96.4661 23.4743 96.6068 23.4539C97.1092 23.3928 97.5112 23.2707 97.7725 23.1485C98.9382 22.6599 99.521 21.7641 99.521 20.5222C99.521 18.2623 97.5715 17.2647 93.7127 17.4886Z" fill="white"></path><path fill-rule="evenodd" clip-rule="evenodd" d="M119.056 25.897C113.992 25.897 109.892 21.8048 109.892 16.7353C109.892 11.6659 113.992 7.57365 119.056 7.57365C124.121 7.57365 128.221 11.6659 128.221 16.7353C128.221 21.8048 124.121 25.897 119.056 25.897ZM119.076 23.8407C122.955 23.8407 126.091 20.6443 126.091 16.715C126.091 12.7856 122.955 9.58922 119.076 9.58922C115.197 9.58922 112.062 12.7856 112.062 16.715C112.062 20.6443 115.197 23.8407 119.076 23.8407Z" fill="white"></path><path fill-rule="evenodd" clip-rule="evenodd" d="M117.428 13.1928L121.428 16.715L117.428 20.2575V13.1928Z" fill="white"></path><path fill-rule="evenodd" clip-rule="evenodd" d="M55.9683 18.5473V33.6946L65.3942 26.121L55.9683 18.5473Z" fill="url(#paint0_linear_893_2346)"></path><path fill-rule="evenodd" clip-rule="evenodd" d="M55.9683 17.6108L80.5281 7.94012L62.1987 22.721L55.9683 17.6108Z" fill="url(#paint1_linear_893_2346)"></path><path fill-rule="evenodd" clip-rule="evenodd" d="M62.1987 22.721L69.8159 16.5521L72.5291 31.1904L62.1987 22.721Z" fill="url(#paint2_linear_893_2346)"></path><path fill-rule="evenodd" clip-rule="evenodd" d="M72.5493 31.1904L48.0498 40.8611L66.3189 26.121L72.5493 31.1904Z" fill="#464AEB"></path><defs><linearGradient id="paint0_linear_893_2346" x1="60.4215" y1="22.7656" x2="51.3669" y2="28.895" gradientUnits="userSpaceOnUse"><stop stop-color="#454BEA"></stop><stop offset="1" stop-color="#4748EB"></stop></linearGradient><linearGradient id="paint1_linear_893_2346" x1="57.935" y1="21.028" x2="64.7646" y2="6.83101" gradientUnits="userSpaceOnUse"><stop stop-color="#454AEA"></stop><stop offset="1" stop-color="#61C2ED"></stop></linearGradient><linearGradient id="paint2_linear_893_2346" x1="74.023" y1="13.049" x2="62.6845" y2="24.8759" gradientUnits="userSpaceOnUse"><stop stop-color="#61C2ED"></stop><stop offset="1" stop-color="#4649EB"></stop></linearGradient></defs></svg>