<svg width="178" height="21" viewBox="0 0 178 21" fill="none" xmlns="http://www.w3.org/2000/svg">
<path d="M14.4653 13.6419C14.4653 14.4199 14.3113 15.1006 14.0034 15.6841C13.7116 16.2675 13.2821 16.7538 12.7149 17.1428C12.1638 17.5317 11.4912 17.8235 10.697 18.018C9.91904 18.2125 9.05194 18.3097 8.09569 18.3097H0V1.29174H7.9012C9.65162 1.29174 11.0212 1.68882 12.0098 2.48299C13.0147 3.27716 13.5171 4.34687 13.5171 5.69209V5.74072C13.5171 6.22695 13.4523 6.65645 13.3226 7.02922C13.2092 7.402 13.0471 7.74236 12.8364 8.0503C12.6419 8.34204 12.4069 8.60136 12.1314 8.82826C11.8721 9.05517 11.5884 9.24966 11.2805 9.41174C12.2691 9.78451 13.0471 10.295 13.6144 10.9434C14.1816 11.5754 14.4653 12.4588 14.4653 13.5933V13.6419ZM9.79749 6.37281V6.32419C9.79749 5.75693 9.58679 5.32743 9.16539 5.03569C8.74399 4.72774 8.13621 4.57377 7.34204 4.57377H3.64671V8.17186H7.09892C7.92551 8.17186 8.58192 8.03409 9.06814 7.75856C9.55437 7.46683 9.79749 7.00491 9.79749 6.37281ZM10.7456 13.18V13.1314C10.7456 12.5641 10.5268 12.1184 10.0892 11.7943C9.65162 11.4539 8.94659 11.2837 7.97413 11.2837H3.64671V15.0277H8.09569C8.92228 15.0277 9.57058 14.8818 10.0406 14.5901C10.5106 14.2821 10.7456 13.8121 10.7456 13.18Z" fill="white"/>
<path d="M38.5257 9.80072C38.5257 11.0163 38.2988 12.1589 37.845 13.2286C37.3912 14.2821 36.7591 15.2141 35.9487 16.0244C35.1546 16.8186 34.1983 17.4507 33.08 17.9207C31.9779 18.3745 30.7704 18.6014 29.4576 18.6014C28.1448 18.6014 26.9373 18.3745 25.8352 17.9207C24.7331 17.4507 23.7768 16.8267 22.9665 16.0487C22.1723 15.2546 21.5483 14.3307 21.0945 13.2772C20.6569 12.2075 20.4381 11.0649 20.4381 9.84934V9.80072C20.4381 8.58515 20.665 7.45062 21.1188 6.39713C21.5726 5.32742 22.1966 4.39549 22.9908 3.60132C23.8012 2.79094 24.7574 2.15884 25.8595 1.70503C26.9778 1.23501 28.1934 1 29.5062 1C30.819 1 32.0265 1.23501 33.1286 1.70503C34.2307 2.15884 35.1789 2.78283 35.9731 3.57701C36.7834 4.35497 37.4074 5.2788 37.845 6.3485C38.2988 7.402 38.5257 8.53653 38.5257 9.7521V9.80072ZM34.6116 9.84934V9.80072C34.6116 9.07138 34.482 8.38256 34.2226 7.73425C33.9795 7.08595 33.623 6.51868 33.1529 6.03246C32.6991 5.54623 32.1562 5.16535 31.5241 4.88982C30.892 4.59808 30.2032 4.45221 29.4576 4.45221C28.6958 4.45221 27.9989 4.58998 27.3668 4.86551C26.7509 5.14104 26.2161 5.52192 25.7623 6.00814C25.3247 6.49437 24.9762 7.06164 24.7169 7.70994C24.4738 8.34204 24.3522 9.02275 24.3522 9.7521V9.80072C24.3522 10.5301 24.4738 11.2189 24.7169 11.8672C24.9762 12.5155 25.3328 13.0828 25.7866 13.569C26.2566 14.0552 26.7996 14.4442 27.4154 14.7359C28.0475 15.0115 28.7445 15.1492 29.5062 15.1492C30.2518 15.1492 30.9406 15.0115 31.5727 14.7359C32.2048 14.4604 32.7396 14.0795 33.1772 13.5933C33.6311 13.1071 33.9795 12.5479 34.2226 11.9158C34.482 11.2675 34.6116 10.5787 34.6116 9.84934Z" fill="white"/>
<path d="M57.7222 18.3097H45.4936V1.29174H49.2376V14.9061H57.7222V18.3097Z" fill="white"/>
<path d="M77.0775 4.74395H71.8992V18.3097H68.1552V4.74395H62.9769V1.29174H77.0775V4.74395Z" fill="white"/>
<path d="M98.5551 15.5625C98.1175 16.0325 97.6637 16.4539 97.1937 16.8267C96.7236 17.1995 96.205 17.5236 95.6377 17.7992C95.0867 18.0585 94.4789 18.253 93.8144 18.3826C93.1499 18.5285 92.4043 18.6014 91.5777 18.6014C90.3297 18.6014 89.1709 18.3745 88.1012 17.9207C87.0315 17.4669 86.1077 16.851 85.3297 16.0731C84.5517 15.2789 83.944 14.3469 83.5064 13.2772C83.0687 12.2075 82.8499 11.0649 82.8499 9.84934V9.80072C82.8499 8.58515 83.0687 7.45062 83.5064 6.39713C83.944 5.32742 84.5517 4.39549 85.3297 3.60132C86.1077 2.79094 87.0396 2.15884 88.1255 1.70503C89.2114 1.23501 90.4108 1 91.7236 1C92.5178 1 93.239 1.06483 93.8873 1.19449C94.5518 1.32415 95.1515 1.50243 95.6864 1.72934C96.2212 1.95625 96.7155 2.23178 97.1693 2.55593C97.6232 2.88008 98.0446 3.23665 98.4335 3.62563L96.051 6.37281C95.3865 5.77313 94.7058 5.30311 94.0089 4.96275C93.3281 4.62239 92.5583 4.45221 91.6993 4.45221C90.9862 4.45221 90.3216 4.58998 89.7058 4.86551C89.1061 5.14104 88.5874 5.52192 88.1498 6.00814C87.7122 6.49437 87.3719 7.06164 87.1287 7.70994C86.8856 8.34204 86.7641 9.02275 86.7641 9.7521V9.80072C86.7641 10.5301 86.8856 11.2189 87.1287 11.8672C87.3719 12.5155 87.7041 13.0828 88.1255 13.569C88.5631 14.0552 89.0818 14.4442 89.6814 14.7359C90.2973 15.0115 90.9699 15.1492 91.6993 15.1492C92.6717 15.1492 93.4902 14.9709 94.1547 14.6144C94.8355 14.2578 95.5081 13.7716 96.1726 13.1557L98.5551 15.5625Z" fill="white"/>
<path d="M120.138 1.44843H116.742C116.511 1.44843 116.323 1.63609 116.323 1.86759V7.6529C116.323 7.79212 116.392 7.92226 116.508 8.00021L119.835 10.2482C120.112 10.4353 120.485 10.2388 120.488 9.90445L120.557 1.87119C120.559 1.6383 120.371 1.44843 120.138 1.44843Z" fill="url(#paint0_linear_759_985)"/>
<g filter="url(#filter0_d_759_985)">
<path d="M103.846 9.97659L103.797 17.7343C103.796 17.9657 103.982 18.1545 104.213 18.1561L107.635 18.1809C107.868 18.1826 108.058 17.9932 108.057 17.7598L108.034 12.7975C108.033 12.6525 108.107 12.5174 108.23 12.4404L111.987 10.084C112.127 9.99623 112.306 9.99889 112.443 10.0908L116.135 12.5618C116.252 12.6404 116.322 12.7729 116.321 12.9142L116.274 17.7608C116.272 17.9938 116.46 18.184 116.693 18.184H120.089C120.32 18.184 120.508 17.9963 120.508 17.7648V10.0971C120.508 9.95982 120.441 9.83124 120.328 9.7529L112.479 4.29792C112.337 4.19951 112.15 4.19786 112.006 4.29378L104.032 9.63089C103.917 9.70817 103.847 9.83765 103.846 9.97659Z" fill="#B0B0B0"/>
<path d="M103.846 9.97659L103.797 17.7343C103.796 17.9657 103.982 18.1545 104.213 18.1561L107.635 18.1809C107.868 18.1826 108.058 17.9932 108.057 17.7598L108.034 12.7975C108.033 12.6525 108.107 12.5174 108.23 12.4404L111.987 10.084C112.127 9.99623 112.306 9.99889 112.443 10.0908L116.135 12.5618C116.252 12.6404 116.322 12.7729 116.321 12.9142L116.274 17.7608C116.272 17.9938 116.46 18.184 116.693 18.184H120.089C120.32 18.184 120.508 17.9963 120.508 17.7648V10.0971C120.508 9.95982 120.441 9.83124 120.328 9.7529L112.479 4.29792C112.337 4.19951 112.15 4.19786 112.006 4.29378L104.032 9.63089C103.917 9.70817 103.847 9.83765 103.846 9.97659Z" fill="url(#paint1_linear_759_985)"/>
</g>
<g filter="url(#filter1_d_759_985)">
<path d="M103.848 9.53348V1.83664C103.848 1.60515 104.035 1.41748 104.267 1.41748H107.64C107.872 1.41748 108.059 1.60515 108.059 1.83664V6.75492C108.059 6.89295 108.127 7.02213 108.241 7.10032L115.812 12.3054C116.057 12.4736 116.054 12.8358 115.806 13L112.374 15.2794C112.231 15.3739 112.046 15.3726 111.905 15.276L104.03 9.87924C103.916 9.80109 103.848 9.67173 103.848 9.53348Z" fill="url(#paint2_linear_759_985)"/>
</g>
<path d="M143.84 18.3705H139.926L138.37 14.5536H131.173L129.618 18.3705H125.801L133.094 1.23096H136.546L143.84 18.3705ZM137.032 11.2472L134.772 5.72856L132.511 11.2472H137.032Z" fill="white"/>
<path d="M154.027 18.3705H150.283V1.35251H154.027V18.3705Z" fill="white"/>
<path d="M177.048 18.3705H173.864L165.622 7.55192V18.3705H161.927V1.35251H165.379L173.353 11.8307V1.35251H177.048V18.3705Z" fill="white"/>
<defs>
<filter id="filter0_d_759_985" x="100.654" y="0.450506" width="22.5791" height="19.8293" filterUnits="userSpaceOnUse" color-interpolation-filters="sRGB">
<feFlood flood-opacity="0" result="BackgroundImageFix"/>
<feColorMatrix in="SourceAlpha" type="matrix" values="0 0 0 0 0 0 0 0 0 0 0 0 0 0 0 0 0 0 127 0" result="hardAlpha"/>
<feOffset dx="-0.209581" dy="-0.838323"/>
<feGaussianBlur stdDeviation="1.46707"/>
<feComposite in2="hardAlpha" operator="out"/>
<feColorMatrix type="matrix" values="0 0 0 0 0 0 0 0 0 0 0 0 0 0 0 0 0 0 0.25 0"/>
<feBlend mode="normal" in2="BackgroundImageFix" result="effect1_dropShadow_759_985"/>
<feBlend mode="normal" in="SourceGraphic" in2="effect1_dropShadow_759_985" result="shape"/>
</filter>
<filter id="filter1_d_759_985" x="102.8" y="1.2079" width="14.2418" height="16.0277" filterUnits="userSpaceOnUse" color-interpolation-filters="sRGB">
<feFlood flood-opacity="0" result="BackgroundImageFix"/>
<feColorMatrix in="SourceAlpha" type="matrix" values="0 0 0 0 0 0 0 0 0 0 0 0 0 0 0 0 0 0 127 0" result="hardAlpha"/>
<feOffset dy="0.838323"/>
<feGaussianBlur stdDeviation="0.523952"/>
<feComposite in2="hardAlpha" operator="out"/>
<feColorMatrix type="matrix" values="0 0 0 0 0 0 0 0 0 0 0 0 0 0 0 0 0 0 0.25 0"/>
<feBlend mode="normal" in2="BackgroundImageFix" result="effect1_dropShadow_759_985"/>
<feBlend mode="normal" in="SourceGraphic" in2="effect1_dropShadow_759_985" result="shape"/>
</filter>
<linearGradient id="paint0_linear_759_985" x1="118.53" y1="3.23304" x2="114.947" y2="7.66395" gradientUnits="userSpaceOnUse">
<stop stop-color="#9A9AFD"/>
<stop offset="1" stop-color="white"/>
</linearGradient>
<linearGradient id="paint1_linear_759_985" x1="107.54" y1="13.5993" x2="116.592" y2="8.93724" gradientUnits="userSpaceOnUse">
<stop stop-color="#454AEA"/>
<stop offset="1" stop-color="#61C2ED"/>
</linearGradient>
<linearGradient id="paint2_linear_759_985" x1="110.343" y1="4.12587" x2="106.394" y2="13.6001" gradientUnits="userSpaceOnUse">
<stop stop-color="#9A9AFD"/>
<stop offset="1" stop-color="white"/>
</linearGradient>
</defs>
</svg>
