<svg width="12" height="13" viewBox="0 0 12 13" fill="none" xmlns="http://www.w3.org/2000/svg">
<path d="M10.008 3.965L10.015 3.9565L8.015 2.3365L7.385 3.1135L8.4185 3.9505C8.16212 4.1063 7.95854 4.33562 7.83423 4.60867C7.70993 4.88171 7.67065 5.18583 7.7215 5.4815C7.7965 5.931 8.106 6.3195 8.5065 6.537C8.954 6.7805 9.3465 6.758 9.6955 6.634L9.688 9.725C9.6886 9.80779 9.66855 9.88943 9.62967 9.96252C9.59078 10.0356 9.53428 10.0979 9.46529 10.1436C9.39629 10.1894 9.31697 10.2172 9.23451 10.2246C9.15204 10.232 9.06904 10.2188 8.993 10.186C8.93344 10.1605 8.87943 10.1237 8.834 10.0775C8.78778 10.0312 8.75114 9.97621 8.72617 9.91573C8.7012 9.85525 8.6884 9.79043 8.6885 9.725L8.7 8.725C8.7005 8.52819 8.66201 8.33323 8.58675 8.15138C8.51148 7.96953 8.40094 7.80439 8.2615 7.6655C8.1222 7.5259 7.95675 7.41514 7.77461 7.33956C7.59246 7.26397 7.3972 7.22504 7.2 7.225H6.7V3.225C6.7 2.95978 6.59464 2.70543 6.4071 2.51789C6.21957 2.33036 5.96521 2.225 5.7 2.225H2.2C1.93478 2.225 1.68043 2.33036 1.49289 2.51789C1.30535 2.70543 1.2 2.95978 1.2 3.225V10.225C1.2 10.4902 1.30535 10.7446 1.49289 10.9321C1.68043 11.1196 1.93478 11.225 2.2 11.225H5.7C5.96521 11.225 6.21957 11.1196 6.4071 10.9321C6.59464 10.7446 6.7 10.4902 6.7 10.225V8.225H7.2C7.268 8.225 7.3335 8.2385 7.3955 8.264C7.51449 8.31609 7.60935 8.41131 7.661 8.5305C7.68693 8.59205 7.7002 8.65821 7.7 8.725L7.688 9.725C7.688 9.928 7.7275 10.1245 7.806 10.309C7.8815 10.4885 7.99 10.649 8.1265 10.7845C8.26529 10.9248 8.43065 11.036 8.61291 11.1116C8.79516 11.1872 8.99067 11.2258 9.188 11.225C9.391 11.225 9.587 11.186 9.772 11.107C9.951 11.032 10.112 10.9235 10.2475 10.7865C10.3875 10.6475 10.4985 10.4821 10.5741 10.2999C10.6497 10.1177 10.6884 9.92227 10.688 9.725L10.7 5.225C10.6995 4.97381 10.6359 4.72678 10.5149 4.5066C10.394 4.28643 10.2197 4.10019 10.008 3.965ZM5.7 4.725H2.2V3.225H5.7V4.725ZM9.2 5.725C9.06739 5.725 8.94021 5.67232 8.84644 5.57855C8.75268 5.48479 8.7 5.35761 8.7 5.225C8.7 5.09239 8.75268 4.96522 8.84644 4.87145C8.94021 4.77768 9.06739 4.725 9.2 4.725C9.33261 4.725 9.45978 4.77768 9.55355 4.87145C9.64732 4.96522 9.7 5.09239 9.7 5.225C9.7 5.35761 9.64732 5.48479 9.55355 5.57855C9.45978 5.67232 9.33261 5.725 9.2 5.725Z" fill="#F2F2F2" fill-opacity="0.5"/>
</svg>
