<svg width="30" height="30" viewBox="0 0 30 30" fill="none" xmlns="http://www.w3.org/2000/svg">
  <path
    d="M15 26.25V23.5938L21.625 16.9688L24.2812 19.625L17.6562 26.25H15ZM3.75 20V17.5H12.5V20H3.75ZM25.1562 18.75L22.5 16.0938L23.4062 15.1875C23.6354 14.9583 23.9271 14.8438 24.2812 14.8438C24.6354 14.8438 24.9271 14.9583 25.1562 15.1875L26.0625 16.0938C26.2917 16.3229 26.4062 16.6146 26.4062 16.9688C26.4062 17.3229 26.2917 17.6146 26.0625 17.8438L25.1562 18.75ZM3.75 15V12.5H17.5V15H3.75ZM3.75 10V7.5H17.5V10H3.75Z"
    fill="#F2F2F2" />
</svg>