<svg width="120" height="120" viewBox="0 0 120 120" fill="none" xmlns="http://www.w3.org/2000/svg">
<path d="M50.8416 44.5916C54.4582 40.975 56.2666 39.1666 58.5124 39.1666C60.7603 39.1666 62.5687 40.975 66.1832 44.5916L75.3916 53.7979C79.0062 57.4125 80.8145 59.2208 80.8145 61.4687C80.8145 63.7145 79.0062 65.5229 75.3895 69.1395C71.7728 72.7562 69.9645 74.5645 67.7187 74.5645C65.4707 74.5645 63.6624 72.7562 60.0478 69.1395L50.8395 59.9333C47.227 56.3187 45.4166 54.5104 45.4166 52.2625C45.4166 50.0166 47.2249 48.2083 50.8416 44.5916ZM50.1749 63.6875L40.8874 72.975C40.1728 73.6895 39.8166 74.0458 39.602 74.4166C39.3164 74.9113 39.166 75.4725 39.166 76.0437C39.166 76.6149 39.3164 77.1761 39.602 77.6708C39.8166 78.0416 40.1728 78.4 40.8874 79.1125C41.5999 79.825 41.9562 80.1833 42.3291 80.3979C42.8238 80.6835 43.3849 80.8339 43.9562 80.8339C44.5274 80.8339 45.0885 80.6835 45.5832 80.3979C45.9541 80.1833 46.3124 79.825 47.0249 79.1125L56.3124 69.825L50.1749 63.6875Z" fill="#F2F2F2"/>
<path d="M52.3853 61.4791L52.3936 61.4687L58.5311 67.6062L58.5207 67.6146L52.3853 61.4771V61.4791ZM75.9769 49.9646C76.239 49.4762 76.3719 48.9289 76.3631 48.3747C76.3544 47.8205 76.2042 47.2778 75.9269 46.7979C75.7123 46.4271 75.354 46.0708 74.6415 45.3583C73.929 44.6437 73.5707 44.2875 73.1998 44.0729C72.7202 43.7959 72.1778 43.646 71.624 43.6372C71.0703 43.6285 70.5234 43.7612 70.0353 44.0229L75.9769 49.9646Z" fill="#F2F2F2"/>
<path d="M120 60C120 93.1371 93.1371 120 60 120C26.8629 120 0 93.1371 0 60C0 26.8629 26.8629 0 60 0C93.1371 0 120 26.8629 120 60ZM3.6 60C3.6 91.1489 28.8511 116.4 60 116.4C91.1489 116.4 116.4 91.1489 116.4 60C116.4 28.8511 91.1489 3.6 60 3.6C28.8511 3.6 3.6 28.8511 3.6 60Z" fill="#49FF97"/>
</svg>
