<svg id="ejCAIdWvLbu1" width="120" height="120" xmlns="http://www.w3.org/2000/svg"
  xmlns:xlink="http://www.w3.org/1999/xlink" viewBox="0 0 120 120" shape-rendering="geometricPrecision"
  text-rendering="geometricPrecision">
  <defs>
    <linearGradient id="ejCAIdWvLbu4-fill" x1="57.4999" y1="0" x2="120" y2="60" spreadMethod="pad"
      gradientUnits="userSpaceOnUse" gradientTransform="translate(0 0)">
      <stop id="ejCAIdWvLbu4-fill-0" offset="0%" stop-color="rgba(129,225,255,0)" />
      <stop id="ejCAIdWvLbu4-fill-1" offset="100%" stop-color="#1f77fd" />
    </linearGradient>
  </defs>
  <path
    d="M50.8417,44.5916c3.6167-3.6166,5.425-5.425,7.6708-5.425c2.2479,0,4.0563,1.8084,7.6709,5.425l9.2083,9.2063c3.6146,3.6146,5.4229,5.4229,5.4229,7.6708c0,2.2458-1.8083,4.0542-5.425,7.6708-3.6167,3.6167-5.425,5.425-7.6708,5.425-2.2479,0-4.0563-1.8083-7.6709-5.425l-9.2083-9.2062c-3.6125-3.6146-5.4229-5.4229-5.4229-7.6708c0-2.2459,1.8083-4.0542,5.425-7.6709ZM50.175,63.6875L40.8875,72.975c-.7146.7145-1.0708,1.0708-1.2854,1.4416-.2856.4947-.436,1.0559-.436,1.6271s.1504,1.1324.436,1.6271c.2146.3708.5708.7292,1.2854,1.4417.7125.7125,1.0688,1.0708,1.4417,1.2854.4947.2856,1.0559.436,1.6271.436s1.1324-.1504,1.6271-.436c.3708-.2146.7291-.5729,1.4416-1.2854l9.2875-9.2875-6.1375-6.1375Z"
    fill="#f2f2f2" />
  <path
    d="M52.3855,61.4791l.0083-.0104l6.1375,6.1375-.0104.0084-6.1354-6.1375v.002ZM75.9772,49.9646c.262-.4884.3949-1.0357.3862-1.5899s-.1589-1.0969-.4362-1.5768c-.2146-.3708-.573-.7271-1.2855-1.4396-.7125-.7146-1.0708-1.0708-1.4416-1.2854-.4797-.277-1.022-.4269-1.5758-.4357-.5538-.0087-1.1007.124-1.5888.3857l5.9417,5.9417Z"
    fill="#f2f2f2" />
  <path id="ejCAIdWvLbu4"
    d="M60,1.8c0-.994113.8061-1.80282,1.7998-1.773002C69.0654,0.24503,76.2362,1.78173,82.961,4.56723c7.2795,3.01528,13.8939,7.43487,19.465,13.00637c5.572,5.5715,9.991,12.1859,13.007,19.4654c2.785,6.7248,4.322,13.8956,4.54,21.1612.03.9937-.779,1.7998-1.773,1.7998s-1.797-.8061-1.829-1.7997c-.217-6.7928-1.66-13.4956-4.264-19.7836-2.835-6.8428-6.989-13.0603-12.2262-18.2975s-11.4547-9.3916-18.2974-12.22601C75.2953,5.28862,68.5925,3.84558,61.7997,3.62872C60.8061,3.597,60,2.79411,60,1.8Z"
    transform="translate(0 0.000008)" fill="url(#ejCAIdWvLbu4-fill)" />
</svg>