<svg width="28" height="28" viewBox="0 0 28 28" fill="none" xmlns="http://www.w3.org/2000/svg">
  <g style="mix-blend-mode:overlay">
    <path
      d="M12.1667 21.5417L11.9 19.4083C11.7556 19.3528 11.6193 19.2861 11.4913 19.2083C11.3633 19.1306 11.2384 19.0472 11.1167 18.9583L9.13334 19.7917L7.3 16.625L9.01667 15.325C9.00556 15.2472 9 15.1721 9 15.0997V14.6503C9 14.5779 9.00556 14.5028 9.01667 14.425L7.3 13.125L9.13334 9.95833L11.1167 10.7917C11.2389 10.7028 11.3667 10.6194 11.5 10.5417C11.6333 10.4639 11.7667 10.3972 11.9 10.3417L12.1667 8.20833H15.8333L16.1 10.3417C16.2444 10.3972 16.3807 10.4639 16.5087 10.5417C16.6367 10.6194 16.7616 10.7028 16.8833 10.7917L18.8667 9.95833L20.7 13.125L18.9833 14.425C18.9944 14.5028 19 14.5779 19 14.6503V15.0997C19 15.1721 18.9889 15.2472 18.9667 15.325L20.6833 16.625L18.85 19.7917L16.8833 18.9583C16.7611 19.0472 16.6333 19.1306 16.5 19.2083C16.3667 19.2861 16.2333 19.3528 16.1 19.4083L15.8333 21.5417H12.1667ZM14.0333 17.2083C14.6778 17.2083 15.2278 16.9806 15.6833 16.525C16.1389 16.0694 16.3667 15.5194 16.3667 14.875C16.3667 14.2306 16.1389 13.6806 15.6833 13.225C15.2278 12.7694 14.6778 12.5417 14.0333 12.5417C13.3778 12.5417 12.8249 12.7694 12.3747 13.225C11.9244 13.6806 11.6996 14.2306 11.7 14.875C11.7 15.5194 11.9249 16.0694 12.3747 16.525C12.8244 16.9806 13.3773 17.2083 14.0333 17.2083Z"
      fill="#F2F2F2" />
  </g>
</svg>