<svg width="25" height="25" viewBox="0 0 25 25" fill="none" xmlns="http://www.w3.org/2000/svg">
<path fill-rule="evenodd" clip-rule="evenodd" d="M5 0C2.23858 0 0 2.23858 0 5V20C0 22.7614 2.23858 25 5 25H20C22.7614 25 25 22.7614 25 20V5C25 2.23858 22.7614 0 20 0H5ZM14.2296 5.71613C14.1208 5.87293 14.0626 6.05918 14.0625 6.24998V18.75C14.0625 18.9986 14.1613 19.2371 14.3371 19.4129C14.5129 19.5887 14.7514 19.6875 15 19.6875C15.2486 19.6875 15.4871 19.5887 15.6629 19.4129C15.8387 19.2371 15.9375 18.9986 15.9375 18.75V8.74998L18.0438 11.1637C18.2074 11.351 18.4387 11.4657 18.6868 11.4825C18.9349 11.4992 19.1796 11.4167 19.3669 11.2531C19.5542 11.0895 19.6688 10.8582 19.6856 10.6101C19.7024 10.3619 19.6199 10.1173 19.4563 9.92999L15.7063 5.63373C15.5808 5.48999 15.4144 5.38796 15.2294 5.34127C15.0444 5.29458 14.8496 5.30545 14.6709 5.37243C14.4922 5.43942 14.3383 5.55932 14.2296 5.71613ZM6.66697 13.6062C6.77782 13.6633 6.87617 13.7419 6.95625 13.8375L9.0625 16.25V6.24998C9.0625 6.00134 9.16127 5.76289 9.33709 5.58707C9.51291 5.41126 9.75136 5.31248 10 5.31248C10.2486 5.31248 10.4871 5.41126 10.6629 5.58707C10.8387 5.76289 10.9375 6.00134 10.9375 6.24998V18.75C10.9374 18.9408 10.8792 19.127 10.7705 19.2838C10.6617 19.4407 10.5078 19.5606 10.3291 19.6275C10.1504 19.6945 9.9556 19.7054 9.77059 19.6587C9.58559 19.612 9.41923 19.51 9.29375 19.3662L5.54375 15.07C5.4599 14.9777 5.39531 14.8696 5.35375 14.752C5.31219 14.6345 5.2945 14.5098 5.30172 14.3853C5.30894 14.2608 5.34092 14.139 5.39579 14.027C5.45066 13.9151 5.52732 13.8152 5.62127 13.7332C5.71523 13.6512 5.8246 13.5888 5.94297 13.5496C6.06135 13.5104 6.18636 13.4952 6.31067 13.5049C6.43499 13.5146 6.55612 13.5491 6.66697 13.6062Z" fill="#F2F2F2"/>
</svg>
