<svg width="13" height="12" viewBox="0 0 13 12" fill="none" xmlns="http://www.w3.org/2000/svg">
<path fill-rule="evenodd" clip-rule="evenodd" d="M10.592 4.002C10.5645 4 10.534 4 10.502 4H9.2395C8.2055 4 7.321 4.814 7.321 5.875C7.321 6.936 8.206 7.75 9.2395 7.75H10.502C10.534 7.75 10.5645 7.75 10.593 7.748C10.8055 7.73519 11.0061 7.64555 11.1574 7.49579C11.3088 7.34603 11.4005 7.14637 11.4155 6.934C11.4175 6.904 11.4175 6.8715 11.4175 6.8415V4.9085C11.4175 4.8785 11.4175 4.846 11.4155 4.816C11.4005 4.60363 11.3088 4.40397 11.1574 4.25421C11.0061 4.10445 10.8055 4.01481 10.593 4.002H10.592ZM9.128 6.375C9.394 6.375 9.6095 6.151 9.6095 5.875C9.6095 5.599 9.394 5.375 9.128 5.375C8.8615 5.375 8.646 5.599 8.646 5.875C8.646 6.151 8.8615 6.375 9.128 6.375Z" fill="#F2F2F2" fill-opacity="0.5"/>
<path fill-rule="evenodd" clip-rule="evenodd" d="M10.501 8.5C10.5183 8.49931 10.5355 8.5027 10.5513 8.5099C10.567 8.51711 10.5808 8.52792 10.5916 8.54146C10.6023 8.555 10.6098 8.57089 10.6132 8.58784C10.6167 8.60479 10.6161 8.62232 10.6115 8.639C10.5115 8.995 10.352 9.299 10.0965 9.554C9.72205 9.929 9.24755 10.0945 8.66155 10.1735C8.09155 10.25 7.36405 10.25 6.44505 10.25H5.38905C4.47005 10.25 3.74205 10.25 3.17255 10.1735C2.58655 10.0945 2.11205 9.9285 1.73755 9.5545C1.36355 9.18 1.19755 8.7055 1.11855 8.1195C1.04205 7.5495 1.04205 6.822 1.04205 5.903V5.847C1.04205 4.928 1.04205 4.2 1.11855 3.63C1.19755 3.044 1.36355 2.5695 1.73755 2.195C2.11205 1.821 2.58655 1.655 3.17255 1.576C3.74255 1.5 4.47005 1.5 5.38905 1.5H6.44505C7.36405 1.5 8.09205 1.5 8.66155 1.5765C9.24755 1.6555 9.72205 1.8215 10.0965 2.1955C10.352 2.4515 10.5115 2.755 10.6115 3.111C10.6161 3.12768 10.6167 3.14521 10.6132 3.16216C10.6098 3.17911 10.6023 3.195 10.5916 3.20854C10.5808 3.22208 10.567 3.23289 10.5513 3.2401C10.5355 3.2473 10.5183 3.25069 10.501 3.25H9.23905C7.82055 3.25 6.57055 4.37 6.57055 5.875C6.57055 7.38 7.82055 8.5 9.23905 8.5H10.501ZM2.91705 3.5C2.81759 3.5 2.72221 3.53951 2.65188 3.60984C2.58155 3.68016 2.54205 3.77554 2.54205 3.875C2.54205 3.97446 2.58155 4.06984 2.65188 4.14017C2.72221 4.21049 2.81759 4.25 2.91705 4.25H4.91705C5.0165 4.25 5.11188 4.21049 5.18221 4.14017C5.25254 4.06984 5.29205 3.97446 5.29205 3.875C5.29205 3.77554 5.25254 3.68016 5.18221 3.60984C5.11188 3.53951 5.0165 3.5 4.91705 3.5H2.91705Z" fill="#F2F2F2" fill-opacity="0.5"/>
</svg>
