<svg width="74" height="74" viewBox="0 0 74 74" fill="none" xmlns="http://www.w3.org/2000/svg">
<path d="M31.9351 14.7926L8.86195 52.9032C8.38623 53.7183 8.13452 54.6425 8.13186 55.5837C8.12919 56.5249 8.37567 57.4505 8.84677 58.2682C9.31786 59.0859 9.99715 59.7673 10.8171 60.2447C11.637 60.722 12.5689 60.9786 13.5202 60.989H59.6666C60.6178 60.9786 61.5498 60.722 62.3697 60.2447C63.1896 59.7673 63.8689 59.0859 64.34 58.2682C64.8111 57.4505 65.0576 56.5249 65.0549 55.5837C65.0522 54.6425 64.8005 53.7183 64.3248 52.9032L41.2516 14.7926C40.766 14.0005 40.0822 13.3456 39.2663 12.891C38.4503 12.4365 37.5297 12.1978 36.5934 12.1978C35.657 12.1978 34.7364 12.4365 33.9205 12.891C33.1046 13.3456 32.4208 14.0005 31.9351 14.7926V14.7926Z" stroke="#DC6D5E" stroke-width="4" stroke-linecap="round" stroke-linejoin="round"/>
<path d="M36.627 32L36.627 44" stroke="#DC6D5E" stroke-width="3" stroke-linecap="round" stroke-linejoin="round"/>
<circle cx="36.6264" cy="50.2638" r="1.5" fill="#DC6D5E" stroke="#DC6D5E" stroke-width="0.252747"/>
</svg>