<?xml version="1.0" encoding="UTF-8"?>
<svg id="b" data-name="Layer 2" xmlns="http://www.w3.org/2000/svg" width="960" height="129.908" viewBox="0 0 960 129.908">
  <g id="c" data-name="Layer 1">
    <g>
      <path d="M105.688,0H0v127.706h22.018v-52.844h83.67l22.018-22.018v-30.826L105.688,0ZM105.688,52.844h-61.651l-13.211,13.211h-8.807V22.018h83.67v30.826Z" fill="#573ef3" fill-rule="evenodd" stroke-width="0"/>
      <polygon points="405.138 0 405.138 66.055 341.284 129.908 277.431 66.055 277.431 0 299.45 0 299.45 56.935 341.284 98.77 383.119 56.935 383.119 0 405.138 0" fill="#573ef3" fill-rule="evenodd" stroke-width="0"/>
      <path d="M513.028,0h-61.651l-33.028,33.028v61.651l33.028,33.028h61.651l33.028-33.028v-61.651L513.028,0ZM524.037,105.688h-83.67V22.018h83.67v83.67Z" fill="#573ef3" fill-rule="evenodd" stroke-width="0"/>
      <path d="M786.055,0h-61.651l-33.028,33.028v94.679h22.018v-52.844h83.67v52.844h22.018V33.028L786.055,0ZM797.064,52.844h-61.651l-13.211,13.211h-8.807V22.018h83.67v30.826Z" fill="#573ef3" fill-rule="evenodd" stroke-width="0"/>
      <polygon points="960 105.688 960 127.706 865.321 127.706 832.294 94.679 832.294 0 854.312 0 854.312 105.688 960 105.688" fill="#573ef3" fill-rule="evenodd" stroke-width="0"/>
      <polygon points="211.376 22.018 211.376 118.899 220.183 118.899 233.394 105.688 264.22 105.688 264.22 127.706 136.514 127.706 136.514 105.688 189.358 105.688 189.358 8.807 180.55 8.807 167.339 22.018 136.514 22.018 136.514 0 264.22 0 264.22 22.018 211.376 22.018" fill="#573ef3" fill-rule="evenodd" stroke-width="0"/>
      <polygon points="682.569 0 682.569 22.018 629.725 22.018 629.725 127.706 607.706 127.706 607.706 8.807 598.899 8.807 585.688 22.018 554.862 22.018 554.862 0 682.569 0" fill="#573ef3" fill-rule="evenodd" stroke-width="0"/>
    </g>
  </g>
</svg>